<svg width="328" height="436" viewBox="0 0 328 436" fill="none" xmlns="http://www.w3.org/2000/svg">
<path fill-rule="evenodd" clip-rule="evenodd" d="M-55.2054 687.461H-102C-102 687.461 85.8475 109.284 105.75 48.0486C115.062 19.398 141.757 0 171.877 0H255.534C280.762 0 301.817 10.6562 314.908 28.6634C327.99 46.6715 331.701 69.7134 324.073 93.22C316.434 116.726 309.219 138.916 302.614 159.247C293.696 186.699 268.99 205.614 240.425 207.153C240.425 207.153 240.277 207.105 280.3 83.9191C283.834 73.0483 282.544 62.4078 276.992 54.7764C271.451 47.1459 262.1 42.6299 249.727 42.6299H177.941C163.845 42.6299 151.354 51.7072 146.993 65.1147L-55.2054 687.461Z" fill="#F0145A"/>
</svg>
